<?xml version="1.0" encoding="iso-8859-1"?>
<!-- Generator: Adobe Illustrator 19.0.0, SVG Export Plug-In . SVG Version: 6.00 Build 0)  -->
<svg xmlns="http://www.w3.org/2000/svg" xmlns:xlink="http://www.w3.org/1999/xlink" version="1.1" id="Layer_1" x="0px" y="0px" viewBox="0 0 512 512" style="enable-background:new 0 0 512 512;" xml:space="preserve" width="512" height="512">
<g>
	<path d="M243.024,270.088c2.683-4.627,7.627-7.476,12.976-7.476s10.293,2.849,12.976,7.476l24.318,41.938H348V204H164v108.026   h54.706L243.024,270.088z"/>
	<path d="M446.706,387.837V40c0-22.056-17.944-40-40-40H105.294c-22.056,0-40,17.944-40,40v347.837   c-19.483,2.67-34.544,19.414-34.544,39.618V497c0,8.284,6.716,15,15,15h420.5c8.284,0,15-6.716,15-15v-69.545   C481.25,407.251,466.189,390.507,446.706,387.837z M256,490.813c-21.692,0-42.085-8.447-57.424-23.786   c-25.994-25.993-31.27-66.358-12.83-98.16l15.564-26.841H149c-8.284,0-15-6.716-15-15V189c0-8.284,6.716-15,15-15h214   c8.284,0,15,6.716,15,15v138.026c0,8.284-6.716,15-15,15h-52.31l15.564,26.841c18.44,31.802,13.165,72.167-12.83,98.16   C298.085,482.366,277.692,490.813,256,490.813z M335.538,124.505c0-3.95,1.6-7.82,4.39-10.61s6.66-4.39,10.61-4.39   s7.81,1.6,10.609,4.39c2.79,2.8,4.391,6.66,4.391,10.61c0,3.95-1.601,7.81-4.391,10.61c-2.8,2.79-6.67,4.39-10.609,4.39   c-3.95,0-7.811-1.6-10.61-4.39C337.137,132.325,335.538,128.455,335.538,124.505z"/>
	<path d="M300.301,383.916L256,307.516l-44.3,76.4c-11.628,20.054-8.302,45.507,8.089,61.898h0.001   c6.024,6.024,13.285,10.361,21.21,12.776V420c0-8.284,6.716-15,15-15s15,6.716,15,15v38.591c7.925-2.416,15.186-6.752,21.21-12.776   C308.602,429.423,311.929,403.97,300.301,383.916z"/>
</g>















</svg>
